<?xml version="1.0" standalone="no"?>
<!DOCTYPE svg PUBLIC "-//W3C//DTD SVG 20010904//EN"
 "http://www.w3.org/TR/2001/REC-SVG-20010904/DTD/svg10.dtd">
<svg version="1.0" xmlns="http://www.w3.org/2000/svg"
 width="500.000000pt" height="500.000000pt" viewBox="0 0 500.000000 500.000000"
 preserveAspectRatio="xMidYMid meet">

<g transform="translate(0.000000,500.000000) scale(0.100000,-0.100000)"
fill="#000000" stroke="none">
<path d="M1732 4160 c-41 -11 -89 -29 -108 -40 -50 -32 -119 -113 -132 -158
-8 -27 -12 -140 -12 -358 0 -288 2 -323 19 -360 53 -117 218 -173 471 -160
185 9 264 39 348 130 71 79 74 97 70 471 l-3 310 -28 48 c-34 58 -103 100
-199 122 -99 22 -331 20 -426 -5z m142 -274 c-4 -10 10 -15 62 -18 104 -6 104
-8 104 -244 0 -146 3 -194 12 -194 8 0 6 -7 -5 -17 -14 -14 -35 -18 -98 -18
-121 0 -119 -4 -119 254 0 171 3 210 16 229 17 24 36 30 28 8z"/>
<path d="M827 4149 c-63 -15 -112 -45 -164 -103 -75 -82 -78 -99 -78 -446 l0
-295 28 -56 c17 -36 41 -66 66 -83 73 -51 117 -59 364 -64 233 -4 277 -1 277
21 0 7 9 20 20 30 18 15 20 29 20 126 0 76 -4 112 -13 119 -7 6 -86 12 -196
14 -167 3 -184 5 -197 22 -19 26 -21 415 -2 434 16 16 28 15 28 -3 0 -13 24
-15 154 -15 158 0 186 4 186 24 0 6 9 19 20 29 19 16 20 27 18 135 l-3 117
-245 2 c-135 0 -262 -3 -283 -8z"/>
<path d="M2593 4154 c-7 -3 -13 -11 -13 -17 0 -7 -9 -18 -20 -25 -20 -12 -20
-23 -20 -502 0 -487 0 -489 21 -501 15 -7 111 -10 322 -7 364 5 378 8 473 103
92 91 94 101 94 445 0 318 -6 359 -60 418 -16 18 -56 45 -87 60 l-58 27 -320
2 c-176 1 -326 0 -332 -3z m347 -279 c0 -8 22 -14 62 -18 97 -9 98 -11 98
-232 0 -138 3 -184 13 -188 44 -16 -99 -36 -205 -28 -17 1 -18 20 -18 240 0
183 3 240 13 244 17 6 37 -3 37 -18z"/>
<path d="M3653 4153 c-7 -2 -13 -10 -13 -16 0 -7 -9 -18 -20 -25 -20 -12 -20
-23 -20 -496 0 -427 2 -486 16 -500 13 -14 60 -16 364 -16 305 0 351 2 362 16
7 8 21 23 31 32 14 14 17 35 17 129 0 112 0 114 -25 123 -15 6 -94 7 -194 3
-92 -3 -180 -3 -194 1 -26 6 -27 10 -27 66 0 53 2 60 20 60 13 0 20 -7 20 -20
0 -19 7 -20 111 -20 l110 0 34 38 c35 37 35 38 35 132 0 62 -4 100 -12 108 -8
8 -59 12 -165 12 l-153 0 0 60 c0 53 2 60 20 60 13 0 20 -7 20 -20 0 -19 7
-20 174 -20 l174 0 26 35 c26 33 27 39 24 147 l-3 113 -360 2 c-198 1 -366 -1
-372 -4z"/>
<path d="M680 2850 c-20 -20 -20 -33 -20 -648 0 -527 2 -631 14 -648 13 -18
28 -19 205 -19 169 0 192 2 208 18 16 16 18 43 21 252 l3 235 145 0 144 0 0
-220 c0 -251 5 -274 63 -285 18 -4 106 -5 196 -3 147 3 164 5 177 22 12 17 14
122 14 648 0 615 0 628 -20 648 -19 19 -33 20 -202 20 -101 0 -188 -4 -194 -8
-29 -19 -34 -56 -34 -256 l0 -206 -144 0 -145 0 -3 221 c-3 205 -4 222 -22
235 -15 11 -61 14 -203 14 -170 0 -184 -1 -203 -20z m370 -253 c0 -176 3 -216
16 -235 15 -21 21 -22 186 -22 145 0 174 3 190 17 16 15 18 36 18 235 l0 218
165 0 165 0 0 -610 0 -610 -165 0 -165 0 0 237 c0 206 -2 239 -17 255 -14 16
-34 18 -186 18 -145 0 -173 -3 -189 -17 -16 -15 -18 -36 -18 -255 l0 -238
-165 0 -165 0 0 610 0 610 165 0 165 0 0 -213z"/>
<path d="M1979 2849 c-20 -20 -20 -26 -16 -467 4 -486 5 -497 65 -622 36 -74
118 -155 189 -186 178 -79 482 -76 657 7 69 32 153 113 186 179 55 108 60 165
60 643 0 408 -1 435 -18 450 -16 14 -43 17 -175 17 -150 0 -156 -1 -171 -22
-14 -19 -16 -78 -16 -433 0 -265 -4 -424 -11 -450 -20 -75 -77 -115 -161 -115
-63 0 -109 24 -135 72 -16 30 -18 72 -21 473 -3 387 -5 442 -19 457 -14 16
-37 18 -205 18 -177 0 -189 -1 -209 -21z m373 -466 c3 -464 4 -470 61 -532 77
-84 240 -80 322 7 58 62 59 68 63 530 l3 422 130 0 129 0 0 -424 c0 -239 -4
-446 -10 -476 -31 -166 -133 -269 -313 -317 -77 -21 -296 -23 -382 -4 -133 29
-227 98 -278 202 -52 105 -57 157 -57 607 l0 412 164 0 165 0 3 -427z"/>
<path d="M3255 2846 l-25 -25 0 -621 0 -621 25 -25 26 -26 372 4 c316 4 383 7
447 22 151 37 237 94 288 190 25 46 27 61 27 161 0 94 -3 116 -22 150 -26 50
-96 116 -153 145 l-42 22 50 33 c110 74 148 151 140 278 -11 159 -104 254
-306 309 -70 19 -111 22 -439 26 l-362 4 -26 -26z m767 -50 c83 -15 172 -51
224 -91 50 -38 87 -122 87 -198 0 -104 -39 -159 -156 -227 -88 -51 -86 -71 11
-120 131 -67 178 -135 176 -260 -1 -147 -74 -230 -245 -281 -69 -21 -98 -23
-451 -27 l-378 -4 0 611 0 611 328 0 c232 -1 349 -5 404 -14z"/>
<path d="M3644 2596 c-17 -13 -19 -27 -19 -136 0 -157 -4 -153 162 -148 104 3
126 6 149 24 50 37 68 70 67 123 -1 62 -30 106 -87 132 -53 24 -241 27 -272 5z
m255 -61 c58 -29 63 -108 11 -145 -24 -17 -44 -20 -129 -20 l-101 0 0 90 0 90
95 0 c64 0 105 -5 124 -15z"/>
<path d="M3644 2086 c-17 -13 -19 -27 -19 -141 0 -158 -2 -155 139 -155 122 0
159 10 203 52 81 78 55 208 -50 247 -44 17 -249 14 -273 -3z m230 -46 c55 -12
81 -41 81 -91 0 -34 -6 -46 -33 -70 -31 -28 -36 -29 -137 -29 l-105 0 0 93 c0
52 3 97 7 100 9 10 141 8 187 -3z"/>
<path d="M1384 1160 c0 -74 1 -105 3 -67 2 37 2 97 0 135 -2 37 -3 6 -3 -68z"/>
<path d="M3330 1160 c0 -80 4 -130 10 -130 6 0 10 50 10 130 0 80 -4 130 -10
130 -6 0 -10 -50 -10 -130z"/>
<path d="M490 1185 l0 -95 50 0 c28 0 50 5 50 10 0 6 -18 10 -40 10 l-40 0 0
85 c0 50 -4 85 -10 85 -6 0 -10 -38 -10 -95z"/>
<path d="M650 1260 c-25 -25 -34 -61 -26 -105 13 -66 94 -88 143 -39 22 22 25
32 20 77 -3 37 -11 56 -27 69 -30 24 -85 23 -110 -2z m102 -17 c23 -21 24 -89
1 -115 -23 -26 -78 -24 -97 4 -37 52 -9 128 46 128 17 0 40 -7 50 -17z"/>
<path d="M875 1268 c-33 -19 -44 -41 -45 -86 0 -63 34 -94 98 -90 l47 3 3 48
c3 46 3 47 -27 47 -17 0 -31 -4 -31 -10 0 -5 9 -10 20 -10 16 0 20 -7 20 -30
0 -28 -2 -30 -38 -30 -48 0 -72 24 -72 71 0 57 23 79 83 79 37 0 48 3 37 10
-20 13 -70 12 -95 -2z"/>
<path d="M1030 1185 c0 -57 4 -95 10 -95 6 0 10 38 10 95 0 57 -4 95 -10 95
-6 0 -10 -38 -10 -95z"/>
<path d="M1125 1255 c-20 -19 -25 -34 -25 -74 0 -42 4 -53 26 -70 28 -22 88
-28 99 -11 4 6 -10 10 -34 10 -52 0 -71 20 -71 74 0 53 22 76 74 76 22 0 35 4
31 10 -12 20 -75 11 -100 -15z"/>
<path d="M1575 1255 c-20 -19 -25 -34 -25 -74 0 -42 4 -53 26 -70 28 -22 88
-28 99 -11 4 6 -10 10 -34 10 -52 0 -71 20 -71 74 0 53 22 76 74 76 22 0 35 4
31 10 -12 20 -75 11 -100 -15z"/>
<path d="M1753 1268 c-28 -13 -47 -68 -38 -108 15 -69 92 -93 140 -45 19 18
25 35 25 70 0 77 -60 116 -127 83z m91 -24 c18 -18 21 -85 6 -115 -8 -14 -21
-19 -49 -19 -48 0 -66 20 -66 75 0 23 6 49 14 58 17 21 75 22 95 1z"/>
<path d="M1930 1185 c0 -114 18 -129 22 -19 l3 77 48 -77 c27 -42 53 -76 58
-76 5 0 8 43 7 98 l-2 97 -3 -84 -4 -85 -55 82 c-30 45 -59 82 -64 82 -6 0
-10 -39 -10 -95z"/>
<path d="M2130 1185 l0 -98 51 5 c68 7 94 33 94 93 0 60 -26 86 -94 93 l-51 5
0 -98z m96 67 c16 -10 34 -48 34 -70 0 -36 -38 -72 -76 -72 l-34 0 0 75 0 75
33 0 c17 0 37 -4 43 -8z"/>
<path d="M2320 1185 c0 -57 4 -95 10 -95 6 0 10 38 10 95 0 57 -4 95 -10 95
-6 0 -10 -38 -10 -95z"/>
<path d="M2370 1270 c0 -5 14 -10 30 -10 l30 0 0 -85 c0 -50 4 -85 10 -85 6 0
10 35 10 85 l0 85 30 0 c17 0 30 5 30 10 0 6 -30 10 -70 10 -40 0 -70 -4 -70
-10z"/>
<path d="M2554 1185 c0 -55 1 -76 3 -47 2 29 2 74 0 100 -2 26 -3 2 -3 -53z"/>
<path d="M2635 1255 c-19 -18 -25 -35 -25 -70 0 -35 6 -52 25 -70 25 -26 72
-33 104 -15 45 24 51 120 10 161 -28 28 -84 25 -114 -6z m109 -17 c37 -52 9
-128 -46 -128 -17 0 -40 7 -50 17 -23 21 -24 89 -1 115 23 26 78 24 97 -4z"/>
<path d="M2832 1183 l2 -98 5 83 6 82 50 -79 c28 -44 56 -80 63 -81 9 0 12 25
12 95 0 114 -18 128 -22 18 l-3 -78 -49 78 c-26 42 -52 77 -57 77 -5 0 -8 -44
-7 -97z"/>
<path d="M3058 1269 c-12 -7 -18 -22 -18 -49 0 -25 -6 -42 -16 -48 -14 -8 -14
-10 0 -21 9 -8 16 -28 16 -45 0 -35 15 -56 39 -56 14 1 13 3 -1 14 -10 7 -18
26 -18 44 0 17 -6 37 -13 44 -12 11 -12 16 0 26 7 7 13 26 13 43 0 17 6 32 15
35 15 6 21 24 8 24 -5 0 -16 -5 -25 -11z"/>
<path d="M3110 1271 c0 -5 7 -11 15 -15 9 -3 15 -18 15 -39 0 -18 5 -38 11
-44 8 -8 8 -13 0 -17 -6 -4 -11 -23 -11 -42 0 -22 -6 -37 -15 -40 -16 -7 -21
-24 -6 -24 20 0 41 33 41 65 0 22 6 35 18 40 16 6 16 7 0 16 -12 6 -18 22 -18
43 0 19 -8 40 -18 49 -21 19 -32 22 -32 8z"/>
<path d="M3510 1186 c0 -57 4 -96 10 -96 6 0 10 18 10 41 0 36 2 40 23 37 13
-2 30 -17 42 -40 11 -21 26 -38 33 -38 8 0 3 14 -13 40 l-25 40 20 20 c40 40
16 80 -53 87 l-47 6 0 -97z m91 58 c19 -23 -1 -48 -40 -52 -30 -3 -31 -2 -31
32 0 33 2 36 29 36 16 0 34 -7 42 -16z"/>
<path d="M3670 1185 l0 -95 50 0 c28 0 50 5 50 10 0 6 -18 10 -40 10 -39 0
-40 1 -40 35 0 34 1 35 40 35 22 0 40 5 40 10 0 6 -18 10 -40 10 -38 0 -40 2
-40 30 0 28 2 30 40 30 22 0 40 5 40 10 0 6 -22 10 -50 10 l-50 0 0 -95z"/>
<path d="M3800 1270 c0 -5 13 -10 30 -10 l29 0 4 -87 3 -88 2 88 2 87 30 0
c17 0 30 5 30 10 0 6 -28 10 -65 10 -37 0 -65 -4 -65 -10z"/>
<path d="M3972 1204 c-2 -91 11 -114 64 -114 35 0 47 8 63 37 14 27 15 153 1
153 -6 0 -10 -31 -10 -74 0 -81 -10 -98 -56 -98 -39 0 -47 15 -54 100 l-7 77
-1 -81z"/>
<path d="M4160 1186 c0 -57 4 -96 10 -96 6 0 10 18 10 41 0 36 2 40 23 37 13
-2 30 -17 42 -40 11 -21 26 -38 33 -38 8 0 3 14 -13 40 l-25 40 20 20 c40 40
16 80 -53 87 l-47 6 0 -97z m91 58 c19 -23 -1 -48 -40 -52 -30 -3 -31 -2 -31
32 0 33 2 36 29 36 16 0 34 -7 42 -16z"/>
<path d="M4332 1183 l2 -98 5 83 6 82 50 -79 c28 -44 56 -80 63 -81 9 0 12 25
12 95 0 114 -18 128 -22 18 l-3 -78 -49 78 c-26 42 -52 77 -57 77 -5 0 -8 -44
-7 -97z"/>
<path d="M4520 1215 c0 -9 5 -15 11 -13 6 2 11 8 11 13 0 5 -5 11 -11 13 -6 2
-11 -4 -11 -13z"/>
<path d="M4516 1098 c-3 -13 -6 -27 -6 -33 1 -15 30 27 30 42 0 22 -17 15 -24
-9z"/>
</g>
</svg>
